<svg width="29" height="24" viewBox="0 0 29 24" fill="none" xmlns="http://www.w3.org/2000/svg">
<path d="M3.16362 6.95132C1.92148 10.005 2.01219 13.6021 2.21282 15.0189C2.2485 15.3169 2.30354 15.2862 2.39849 15.1963L3.05986 13.8493C4.07677 12.1353 4.85442 13.8915 5.12037 14.9703C5.35579 15.7607 5.71837 17.3794 7.17845 17.6438C9.00355 17.9744 9.11035 14.5425 9.85544 13.6996C10.4515 13.0253 10.9318 13.5973 11.0975 13.9677C11.4148 14.6243 12.0557 16.2263 12.081 17.3813C12.1062 18.5363 12.6861 19.5617 12.9729 19.93C13.5525 20.3897 15.0758 20.9924 16.5315 19.726C18.3511 18.143 21.2119 20.9476 21.4813 21.6291C21.6969 22.1743 22.1848 22.2071 22.4018 22.1553C22.6101 22.2601 23.2657 22.0903 24.2214 20.5723C25.1772 19.0543 24.5934 18.7367 24.182 18.7677C22.6928 19.8324 22.0345 19.2128 21.8915 18.7698L23.4885 13.6522C24.1681 11.4744 22.8599 12.062 22.1209 12.628C20.6934 13.8554 17.5278 16.0699 16.2852 15.1085C14.7319 13.9069 15.3538 10.7553 15.173 7.47262C15.0284 4.8465 13.4236 5.61231 12.6392 6.32349C9.68252 10.7779 7.85742 10.4474 7.49398 10.4534C7.13054 10.4595 5.79691 9.32641 5.09855 7.31614C4.53986 5.70791 3.57581 6.40283 3.16362 6.95132Z" fill="url(#paint0_linear_273_1560)"/>
<path d="M3.2448 2.90362C3.1926 3.78343 3.88406 5.01147 4.25401 5.45881L4.25476 5.45972C4.31909 5.5375 4.32799 5.54827 4.38064 5.49832C4.84128 5.06126 5.8475 3.91493 6.0457 3.2798C6.29343 2.48589 5.42192 1.7161 4.91539 1.55803C4.40885 1.39997 3.31005 1.80384 3.2448 2.90362Z" fill="url(#paint1_linear_273_1560)"/>
<path d="M14.4601 2.19404C14.3145 3.0333 14.7827 4.24188 15.0571 4.68787L15.0576 4.68878C15.1053 4.76633 15.1119 4.77706 15.1639 4.73183C15.6182 4.33605 16.6325 3.28817 16.8787 2.69013C17.1864 1.94257 16.5079 1.16368 16.0808 0.987819C15.6536 0.811959 14.6422 1.14497 14.4601 2.19404Z" fill="url(#paint2_linear_273_1560)"/>
<path d="M24.5476 9.2752C24.216 9.95968 24.3206 11.1122 24.4463 11.5625L24.4465 11.5634C24.4684 11.6417 24.4714 11.6526 24.5271 11.6265C25.0145 11.3986 26.1428 10.7488 26.5013 10.2961C26.9494 9.73021 26.5587 8.89474 26.2354 8.63869C25.912 8.38264 24.962 8.41959 24.5476 9.2752Z" fill="url(#paint3_linear_273_1560)"/>
<defs>
<linearGradient id="paint0_linear_273_1560" x1="16.1019" y1="6.23605" x2="11.8832" y2="19.7555" gradientUnits="userSpaceOnUse">
<stop stop-color="#F38D7A"/>
<stop offset="1" stop-color="#F16169"/>
</linearGradient>
<linearGradient id="paint1_linear_273_1560" x1="5.08305" y1="1.61035" x2="3.9018" y2="5.39581" gradientUnits="userSpaceOnUse">
<stop stop-color="#F38D7A"/>
<stop offset="1" stop-color="#F16169"/>
</linearGradient>
<linearGradient id="paint2_linear_273_1560" x1="16.2221" y1="1.04603" x2="14.7547" y2="4.61047" gradientUnits="userSpaceOnUse">
<stop stop-color="#F38D7A"/>
<stop offset="1" stop-color="#F16169"/>
</linearGradient>
<linearGradient id="paint3_linear_273_1560" x1="26.3424" y1="8.72344" x2="24.2058" y2="11.4217" gradientUnits="userSpaceOnUse">
<stop stop-color="#F38D7A"/>
<stop offset="1" stop-color="#F16169"/>
</linearGradient>
</defs>
</svg>
